<svg xmlns="http://www.w3.org/2000/svg" viewBox="0 0 64 64">
    <!-- Sfondo scudo -->
    <path d="M32 4c-14 0-24 4-24 4s0 12 0 20c0 16 24 28 24 28s24-12 24-28c0-8 0-20 0-20s-10-4-24-4z" fill="#34495e"/>

    <!-- Sfondo interno -->
    <path d="M32 8c-12 0-20 4-20 4s0 10 0 16c0 12 20 24 20 24s20-12 20-24c0-6 0-16 0-16s-8-4-20-4z" fill="#3498db"/>

    <!-- Serratura -->
    <rect x="24" y="28" width="16" height="16" rx="2" ry="2" fill="#ecf0f1"/>
    <rect x="28" y="20" width="8" height="12" rx="4" ry="4" fill="#ecf0f1"/>
    <circle cx="32" cy="34" r="2" fill="#34495e"/>
    <rect x="31" y="34" width="2" height="5" fill="#34495e"/>
</svg>
